PathFileType   4   (X/Y/Z)
DataRate	CameraRate	NumFrames	NumMarkers	Units	OrigDataRate	OrigDataStartFrame	OrigNumFrames
120.0	120.0	12	37	mm	120.0	94	125
Frame#	Time	midhip	hip_r	hip_l	knee_r	knee_l	ankle_r	ankle_l	midasis	asis_r	asis_l	psis_r	psis_l	epicondLat_r	epicondLat_l	epicondMed_r	epicondMed_l	malleolusLat_r	malleolusLat_l	malleolusMedv_r	malleolusMedv_l	neck	subclavicle_r	subclavicle_l	sternalnotch	xyphoidprocess	thighwand_r	thighwand_l	upperleg1_r	upperleg1_l	upperleg2_r	upperleg2_l	shankwand_r	shankwand_l	lowerleg1_r	lowerleg1_l	toe_r	toe_l
 	 	X1	Y1	Z1	X2	Y2	Z2	X3	Y3	Z3	X4	Y4	Z4	X5	Y5	Z5	X6	Y6	Z6	X7	Y7	Z7	X8	Y8	Z8	X9	Y9	Z9	X10	Y10	Z10	X11	Y11	Z11	X12	Y12	Z12	X13	Y13	Z13	X14	Y14	Z14	X15	Y15	Z15	X16	Y16	Z16	X17	Y17	Z17	X18	Y18	Z18	X19	Y19	Z19	X20	Y20	Z20	X21	Y21	Z21	X22	Y22	Z22	X23	Y23	Z23	X24	Y24	Z24	X25	Y25	Z25	X26	Y26	Z26	X27	Y27	Z27	X28	Y28	Z28	X29	Y29	Z29	X30	Y30	Z30	X31	Y31	Z31	X32	Y32	Z32	X33	Y33	Z33	X34	Y34	Z34	X35	Y35	Z35	X36	Y36	Z36	X37	Y37	Z37

	94	0.90000	885.698	777.474	-233.328	863.204	782.036	-155.339	869.010	779.416	-310.838	863.404	417.858	-185.904	1042.833	431.082	-341.688	803.263	62.334	-198.946	902.334	101.393	-305.027	991.699	856.543	-229.677	987.135	858.603	-107.457	996.262	854.483	-351.897	746.468	921.769	-210.017	746.385	918.432	-264.260	862.987	411.878	-114.656	1043.067	437.505	-412.898	853.737	429.041	-255.121	1059.208	414.964	-258.700	800.330	61.422	-160.569	885.443	104.637	-340.586	804.015	72.479	-235.366	907.140	121.384	-265.464	782.387	1347.126	-239.856	912.161	1282.684	-209.314	907.412	1286.222	-291.538	892.275	1279.089	-261.468	945.751	1206.743	-266.842	1019.243	560.945	-91.312	1126.603	678.439	-323.310	983.499	587.045	-112.327	1079.215	669.977	-333.428	955.934	516.210	-125.682	1099.209	599.082	-336.183	912.290	189.530	-180.784	919.028	198.077	-418.873	864.963	203.044	-184.563	927.942	213.289	-373.797	912.906	43.428	-197.647	990.606	63.149	-325.775
	95	0.90833	893.734	776.835	-233.351	870.774	781.167	-155.525	877.507	779.083	-310.995	866.218	417.364	-186.364	1054.195	432.239	-339.565	803.588	62.593	-199.261	930.972	95.427	-304.421	999.736	855.884	-228.836	994.437	857.524	-106.497	1005.035	854.244	-351.175	754.508	921.145	-210.939	754.753	917.916	-265.118	865.826	411.329	-115.120	1054.687	438.357	-410.801	856.052	430.474	-257.075	1069.779	416.130	-257.024	800.622	61.722	-160.885	913.612	98.086	-339.802	805.100	71.526	-235.698	934.316	115.615	-264.655	791.421	1346.790	-239.728	921.072	1282.501	-209.074	915.917	1285.665	-291.256	900.957	1278.573	-261.456	954.321	1206.271	-266.405	1023.978	559.090	-91.850	1135.565	679.958	-321.924	988.732	585.639	-113.349	1088.439	671.065	-332.523	959.340	514.870	-127.024	1109.068	600.228	-334.809	913.515	188.773	-181.089	941.684	193.778	-417.623	865.576	202.066	-185.558	949.732	209.526	-372.334	912.961	43.329	-197.746	1021.091	62.318	-325.965
	96	0.91667	901.706	776.055	-233.655	878.223	780.206	-155.951	886.021	778.675	-311.377	869.243	416.830	-186.896	1064.968	433.077	-337.359	803.926	62.866	-199.576	959.686	90.002	-303.967	1007.751	855.069	-228.106	1001.600	856.277	-105.526	1013.901	853.861	-350.686	762.579	920.529	-211.947	763.195	917.352	-266.096	868.914	410.772	-115.654	1065.787	438.858	-408.621	857.519	433.574	-259.745	1079.663	416.923	-255.880	800.934	62.043	-161.201	941.866	92.046	-339.159	806.061	71.010	-236.051	963.105	109.503	-264.223	800.138	1346.571	-239.969	929.307	1282.013	-208.472	924.694	1284.998	-290.974	909.658	1277.948	-261.387	962.700	1205.547	-265.530	1028.887	557.283	-92.571	1144.318	680.994	-320.517	994.023	584.130	-114.135	1097.248	671.834	-331.934	962.560	513.595	-128.741	1118.567	601.040	-333.665	914.837	187.999	-181.431	964.186	189.714	-416.422	866.757	201.388	-186.441	972.330	205.306	-370.893	912.994	43.216	-197.850	1051.288	61.965	-326.288
	97	0.92500	909.637	775.178	-234.247	885.604	779.170	-156.579	894.557	778.189	-311.948	872.525	416.294	-187.464	1075.192	433.568	-335.095	804.245	63.152	-199.872	988.350	85.181	-303.634	1015.767	854.114	-227.498	1008.684	854.891	-104.590	1022.849	853.338	-350.405	770.704	919.911	-213.045	771.698	916.753	-267.175	872.267	410.240	-116.222	1076.410	438.995	-406.378	861.115	434.586	-261.704	1090.356	417.479	-253.924	801.240	62.384	-161.497	970.091	86.571	-338.633	805.895	71.787	-236.376	992.333	103.698	-263.902	808.864	1346.204	-240.133	937.811	1280.900	-208.412	933.466	1284.274	-291.292	918.388	1277.229	-261.289	971.069	1204.550	-265.877	1033.974	555.508	-93.383	1152.875	681.535	-319.062	999.334	582.441	-115.019	1105.830	672.249	-330.813	967.036	512.486	-130.084	1127.879	601.731	-332.128	916.245	187.214	-181.802	986.485	185.907	-415.275	868.259	201.247	-186.423	995.088	201.027	-369.325	913.016	43.092	-197.955	1081.075	62.100	-326.722
	98	0.93333	917.540	774.265	-235.050	892.990	778.080	-157.338	903.120	777.614	-312.637	876.083	415.781	-188.028	1084.939	433.709	-332.804	804.520	63.459	-200.135	1016.828	81.004	-303.397	1023.816	853.039	-227.010	1015.775	853.408	-103.730	1031.857	852.670	-350.290	778.895	919.275	-214.227	780.250	916.119	-268.333	875.883	409.755	-116.782	1086.619	438.779	-404.104	865.497	434.244	-262.788	1099.460	417.819	-251.536	801.518	62.750	-161.758	998.159	81.707	-338.199	805.207	73.066	-236.616	1020.988	98.725	-263.551	817.990	1345.295	-239.896	946.654	1279.796	-208.329	942.031	1283.407	-291.296	927.156	1276.421	-261.218	979.575	1203.543	-266.167	1039.230	553.753	-94.201	1161.249	681.573	-317.540	1004.857	581.064	-115.999	1114.178	672.239	-329.733	971.911	511.206	-131.114	1136.678	601.849	-330.402	917.723	186.417	-182.186	1008.518	182.383	-414.186	869.658	201.322	-186.001	1017.348	197.126	-367.710	913.038	42.963	-198.057	1110.349	62.709	-327.260
	99	0.94167	925.499	773.319	-235.873	900.448	776.953	-158.158	911.717	776.938	-313.378	879.901	415.296	-188.558	1094.288	433.520	-330.525	804.746	63.803	-200.354	1044.969	77.495	-303.240	1031.928	851.864	-226.639	1022.951	851.876	-102.985	1040.905	851.852	-350.293	787.158	918.606	-215.466	788.840	915.450	-269.535	879.731	409.317	-117.309	1096.484	438.247	-401.835	869.088	434.619	-263.328	1104.776	417.423	-250.172	801.761	63.153	-161.975	1025.924	77.481	-337.845	805.948	74.007	-236.916	1049.231	95.038	-263.385	827.043	1344.362	-239.777	955.538	1278.997	-208.334	950.885	1282.375	-290.709	935.942	1275.498	-261.196	988.408	1202.576	-265.706	1044.634	552.015	-94.956	1169.458	681.108	-315.936	1010.476	579.921	-116.704	1122.361	671.767	-328.439	976.633	510.107	-131.907	1144.276	600.904	-328.922	919.258	185.602	-182.558	1030.223	179.171	-413.157	873.596	201.290	-186.253	1039.088	193.802	-366.753	913.071	42.837	-198.153	1139.021	63.769	-327.906
	100	0.95000	933.608	772.293	-236.533	908.028	775.813	-158.977	920.354	776.151	-314.117	883.947	414.828	-189.046	1103.307	433.035	-328.297	804.944	64.203	-200.528	1072.613	74.664	-303.163	1040.126	850.616	-226.379	1030.274	850.346	-102.387	1049.977	850.886	-350.370	795.495	917.898	-216.727	797.460	914.736	-270.752	883.760	408.905	-117.792	1106.063	437.451	-399.607	874.195	434.193	-262.953	1109.958	416.745	-248.280	801.977	63.614	-162.147	1053.239	73.909	-337.578	806.254	74.346	-237.068	1076.596	92.121	-263.194	835.967	1343.396	-240.130	964.433	1278.126	-208.672	960.253	1281.514	-290.531	944.749	1274.466	-261.205	997.711	1201.755	-265.629	1050.159	550.299	-95.585	1177.521	680.158	-314.247	1016.431	578.631	-117.266	1130.538	670.853	-326.724	982.742	510.103	-131.913	1151.640	599.647	-327.158	920.843	184.762	-182.890	1051.537	176.306	-412.195	875.846	200.656	-186.528	1060.145	190.979	-365.705	913.114	42.718	-198.239	1167.016	65.254	-328.677
	101	0.95833	941.845	771.160	-237.076	915.758	774.682	-159.756	929.034	775.249	-314.817	888.167	414.354	-189.484	1112.051	432.296	-326.160	805.150	64.675	-200.663	1099.609	72.510	-303.186	1048.418	849.324	-226.225	1037.779	848.870	-101.958	1059.057	849.779	-350.492	803.909	917.156	-217.978	806.116	913.953	-271.965	887.904	408.495	-118.225	1115.400	436.441	-397.462	875.646	435.456	-263.372	1117.135	416.462	-244.184	802.190	64.151	-162.281	1079.961	71.003	-337.420	806.587	74.263	-237.172	1103.395	89.857	-263.119	844.730	1342.358	-240.357	972.748	1276.869	-208.571	969.350	1280.615	-290.704	953.570	1273.355	-261.220	1006.488	1200.707	-265.650	1055.763	548.611	-96.038	1185.466	678.758	-312.486	1022.039	577.087	-117.960	1138.596	669.593	-325.264	986.061	508.098	-132.809	1159.629	598.535	-324.696	922.481	183.899	-183.154	1072.403	173.819	-411.317	877.069	200.006	-187.043	1080.826	188.762	-364.586	913.168	42.610	-198.316	1194.256	67.139	-329.594
	102	0.96667	950.175	769.979	-237.626	923.643	773.581	-160.480	937.753	774.240	-315.467	892.518	413.854	-189.862	1120.561	431.344	-324.143	805.406	65.229	-200.771	1125.826	71.022	-303.330	1056.802	848.017	-226.178	1045.471	847.487	-101.714	1068.133	848.547	-350.642	812.404	916.392	-219.200	814.814	913.082	-273.165	892.105	408.069	-118.598	1124.528	435.263	-395.425	882.012	433.814	-264.207	1123.864	415.877	-240.399	802.435	64.771	-162.388	1105.969	68.764	-337.401	806.829	74.796	-237.272	1129.694	88.684	-263.361	852.961	1341.489	-240.335	981.122	1275.396	-208.221	977.867	1279.176	-290.772	962.402	1272.174	-261.255	1014.722	1199.143	-265.450	1061.413	546.957	-96.273	1193.334	676.965	-310.673	1026.984	575.837	-118.462	1146.493	667.908	-324.207	992.062	507.400	-133.365	1167.569	597.122	-322.346	924.171	183.022	-183.333	1092.773	171.733	-410.550	878.694	199.837	-187.297	1101.145	186.847	-364.274	913.227	42.519	-198.379	1220.664	69.399	-330.684
	103	0.97500	958.603	768.806	-238.174	931.668	772.536	-161.166	946.505	773.149	-316.085	896.984	413.319	-190.170	1128.868	430.228	-322.258	805.747	65.860	-200.857	1151.154	70.162	-303.611	1065.267	846.723	-226.248	1053.337	846.230	-101.674	1077.198	847.216	-350.822	820.977	915.628	-220.391	823.565	912.137	-274.352	896.336	407.627	-118.900	1133.473	433.959	-393.512	888.202	433.076	-265.810	1128.887	414.181	-238.150	802.737	65.470	-162.477	1131.161	67.168	-337.545	806.942	75.872	-237.351	1154.850	88.489	-263.797	861.494	1340.456	-240.503	990.033	1274.159	-208.253	986.638	1277.654	-290.863	971.235	1270.934	-261.320	1023.464	1197.675	-265.298	1067.088	545.346	-96.253	1201.166	674.850	-308.836	1032.243	574.655	-118.605	1154.438	665.457	-322.896	997.580	506.057	-134.146	1174.910	594.871	-320.397	925.914	182.156	-183.410	1112.604	170.058	-409.928	880.602	199.890	-187.187	1120.748	185.002	-364.706	913.290	42.447	-198.426	1246.159	72.004	-331.967
	104	0.98333	967.130	767.614	-238.705	939.815	771.571	-161.838	955.286	772.007	-316.695	901.584	412.758	-190.393	1136.991	428.992	-320.510	806.181	66.557	-200.923	1175.516	69.873	-304.042	1073.806	845.466	-226.446	1061.358	845.115	-101.844	1086.254	845.817	-351.047	829.626	914.881	-221.567	832.376	911.162	-275.529	900.602	407.191	-119.117	1142.245	432.568	-391.727	894.814	431.478	-266.462	1133.981	411.853	-236.185	803.105	66.237	-162.548	1155.461	66.170	-337.870	807.226	76.791	-237.414	1180.235	87.121	-264.302	870.644	1339.231	-240.688	999.011	1272.842	-208.430	995.570	1276.485	-290.938	980.050	1269.646	-261.390	1032.347	1196.433	-265.587	1072.787	543.785	-95.948	1208.997	672.486	-307.012	1037.990	572.978	-118.730	1162.512	662.699	-321.085	1003.537	504.867	-134.205	1182.197	592.021	-318.442	927.720	181.335	-183.384	1131.854	168.783	-409.480	882.232	199.846	-187.054	1140.871	183.527	-363.080	913.364	42.395	-198.454	1270.668	74.921	-333.446
	105	0.99167	975.689	766.468	-239.254	948.077	770.699	-162.509	964.091	770.842	-317.312	906.359	412.195	-190.510	1144.934	427.670	-318.901	806.703	67.322	-200.955	1198.855	70.080	-304.635	1082.416	844.261	-226.774	1069.531	844.146	-102.218	1095.300	844.377	-351.330	838.358	914.156	-222.755	841.262	910.190	-276.705	904.943	406.793	-119.228	1150.836	431.110	-390.074	900.793	430.295	-265.689	1140.244	409.687	-233.754	803.547	67.072	-162.585	1178.805	65.711	-338.387	807.966	77.380	-237.466	1203.383	87.454	-264.942	879.759	1338.099	-240.731	1007.780	1271.277	-208.203	1004.577	1275.302	-290.995	988.881	1268.332	-261.468	1041.081	1195.039	-265.742	1078.521	542.275	-95.348	1216.861	669.954	-305.247	1044.437	571.469	-118.443	1170.263	660.215	-319.536	1009.547	503.997	-133.387	1189.742	589.155	-316.450	929.605	180.589	-183.267	1150.476	167.887	-409.224	884.267	199.401	-186.979	1159.312	182.779	-362.869	913.456	42.365	-198.460	1294.121	78.106	-335.092
